M48
; DRILL file {KiCad (6.0.7)} date Tue Nov  8 16:58:02 2022
; FORMAT={-:-/ absolute / inch / decimal}
; #@! TF.CreationDate,2022-11-08T16:58:02+08:00
; #@! TF.GenerationSoftware,Kicad,Pcbnew,(6.0.7)
; #@! TF.FileFunction,Plated,1,2,PTH
FMAT,2
INCH
; #@! TA.AperFunction,Plated,PTH,ViaDrill
T1C0.0157
; #@! TA.AperFunction,Plated,PTH,ComponentDrill
T2C0.0394
; #@! TA.AperFunction,Plated,PTH,ComponentDrill
T3C0.0709
%
G90
G05
T1
X1.1629Y-4.0085
X1.2598Y-1.6929
X1.378Y-2.0866
X1.4634Y-3.6594
X1.924Y-3.5878
X1.9603Y-1.8233
X2.0079Y-1.1024
X2.0079Y-3.8583
X2.0472Y-2.9528
X2.1548Y-2.0158
X2.185Y-1.752
X2.2719Y-1.7566
X2.2835Y-1.5354
X2.345Y-2.1038
X2.5197Y-2.4016
X2.9134Y-3.8189
X2.9213Y-1.0945
X3.1496Y-2.6378
X3.1496Y-3.5433
X3.4637Y-1.6932
X3.4646Y-1.4567
X3.4646Y-1.5354
X3.4646Y-1.6142
X3.4646Y-1.7717
X3.4646Y-2.3622
X3.5424Y-1.6932
X3.5433Y-1.4567
X3.5433Y-1.5354
X3.5433Y-1.6142
X3.5433Y-1.7717
X3.6212Y-1.6932
X3.622Y-1.4567
X3.622Y-1.5354
X3.622Y-1.6142
X3.622Y-1.7717
X3.7685Y-2.2157
X3.9764Y-1.1811
T2
X1.5622Y-4.06
X1.6622Y-4.06
X1.7622Y-4.06
X1.8622Y-4.06
X2.0937Y-4.06
X2.1937Y-4.06
X2.2937Y-4.06
X2.3937Y-4.06
X2.6252Y-4.06
X2.7252Y-4.06
X2.8252Y-4.06
X2.9252Y-4.06
X3.1075Y-4.06
X3.2075Y-4.06
X3.3075Y-4.06
X3.4075Y-4.06
X3.6094Y-4.06
X3.7094Y-4.06
X3.8094Y-4.06
X3.9094Y-4.06
X4.0551Y-1.4764
X4.0551Y-1.5764
X4.0551Y-1.6764
X4.0551Y-1.7764
X4.06Y-2.0157
X4.06Y-2.1157
X4.06Y-2.2157
X4.06Y-2.3157
X4.0748Y-2.5394
X4.0748Y-2.6394
X4.0748Y-2.7394
X4.0748Y-2.8394
X4.0748Y-3.0709
X4.0748Y-3.1709
X4.0748Y-3.2709
X4.0748Y-3.3709
X4.0748Y-3.5827
X4.0748Y-3.6827
X4.0748Y-3.7827
X4.0748Y-3.8827
T3
X1.5856Y-1.4921
X1.5856Y-1.6575
X1.5856Y-1.8228
X1.5856Y-1.9882
X1.5856Y-2.1535
X1.5856Y-2.3189
X1.5856Y-2.4843
X1.5856Y-2.6496
X1.5856Y-2.815
X1.5856Y-2.9803
X1.5856Y-3.1457
X1.5856Y-3.311
X1.8022Y-1.4921
X1.8022Y-1.6575
X1.8022Y-1.8228
X1.8022Y-1.9882
X1.8022Y-2.1535
X1.8022Y-2.3189
X1.8022Y-2.4843
X1.8022Y-2.6496
X1.8022Y-2.815
X1.8022Y-2.9803
X1.8022Y-3.1457
X1.8022Y-3.311
T0
M30
