%TF.GenerationSoftware,KiCad,Pcbnew,(6.0.7)*%
%TF.CreationDate,2022-11-08T16:58:00+08:00*%
%TF.ProjectId,main,6d61696e-2e6b-4696-9361-645f70636258,rev?*%
%TF.SameCoordinates,Original*%
%TF.FileFunction,Soldermask,Bot*%
%TF.FilePolarity,Negative*%
%FSLAX46Y46*%
G04 Gerber Fmt 4.6, Leading zero omitted, Abs format (unit mm)*
G04 Created by KiCad (PCBNEW (6.0.7)) date 2022-11-08 16:58:00*
%MOMM*%
%LPD*%
G01*
G04 APERTURE LIST*
G04 Aperture macros list*
%AMRoundRect*
0 Rectangle with rounded corners*
0 $1 Rounding radius*
0 $2 $3 $4 $5 $6 $7 $8 $9 X,Y pos of 4 corners*
0 Add a 4 corners polygon primitive as box body*
4,1,4,$2,$3,$4,$5,$6,$7,$8,$9,$2,$3,0*
0 Add four circle primitives for the rounded corners*
1,1,$1+$1,$2,$3*
1,1,$1+$1,$4,$5*
1,1,$1+$1,$6,$7*
1,1,$1+$1,$8,$9*
0 Add four rect primitives between the rounded corners*
20,1,$1+$1,$2,$3,$4,$5,0*
20,1,$1+$1,$4,$5,$6,$7,0*
20,1,$1+$1,$6,$7,$8,$9,0*
20,1,$1+$1,$8,$9,$2,$3,0*%
G04 Aperture macros list end*
%ADD10R,1.700000X1.700000*%
%ADD11O,1.700000X1.700000*%
%ADD12C,3.200000*%
%ADD13C,3.000000*%
%ADD14RoundRect,0.250001X1.599999X-1.099999X1.599999X1.099999X-1.599999X1.099999X-1.599999X-1.099999X0*%
%ADD15O,3.700000X2.700000*%
G04 APERTURE END LIST*
D10*
%TO.C,J8*%
X103125000Y-51200000D03*
D11*
X103125000Y-53740000D03*
X103125000Y-56280000D03*
X103125000Y-58820000D03*
%TD*%
D12*
%TO.C,H4*%
X110000000Y-110000000D03*
%TD*%
%TO.C,H1*%
X30000000Y-30000000D03*
%TD*%
%TO.C,H3*%
X30000000Y-110000000D03*
%TD*%
D10*
%TO.C,J7*%
X103000000Y-37500000D03*
D11*
X103000000Y-40040000D03*
X103000000Y-42580000D03*
X103000000Y-45120000D03*
%TD*%
D10*
%TO.C,J5*%
X86550000Y-103125000D03*
D11*
X84010000Y-103125000D03*
X81470000Y-103125000D03*
X78930000Y-103125000D03*
%TD*%
D10*
%TO.C,J9*%
X103500000Y-64500000D03*
D11*
X103500000Y-67040000D03*
X103500000Y-69580000D03*
X103500000Y-72120000D03*
%TD*%
D10*
%TO.C,J3*%
X74300000Y-103125000D03*
D11*
X71760000Y-103125000D03*
X69220000Y-103125000D03*
X66680000Y-103125000D03*
%TD*%
D10*
%TO.C,J2*%
X99300000Y-103125000D03*
D11*
X96760000Y-103125000D03*
X94220000Y-103125000D03*
X91680000Y-103125000D03*
%TD*%
D13*
%TO.C,J1*%
X32975000Y-84100000D03*
X32975000Y-37900000D03*
D14*
X40275000Y-84100000D03*
D15*
X40275000Y-79900000D03*
X40275000Y-75700000D03*
X40275000Y-71500000D03*
X40275000Y-67300000D03*
X40275000Y-63100000D03*
X40275000Y-58900000D03*
X40275000Y-54700000D03*
X40275000Y-50500000D03*
X40275000Y-46300000D03*
X40275000Y-42100000D03*
X40275000Y-37900000D03*
X45775000Y-84100000D03*
X45775000Y-79900000D03*
X45775000Y-75700000D03*
X45775000Y-71500000D03*
X45775000Y-67300000D03*
X45775000Y-63100000D03*
X45775000Y-58900000D03*
X45775000Y-54700000D03*
X45775000Y-50500000D03*
X45775000Y-46300000D03*
X45775000Y-42100000D03*
X45775000Y-37900000D03*
%TD*%
D10*
%TO.C,J10*%
X103500000Y-78000000D03*
D11*
X103500000Y-80540000D03*
X103500000Y-83080000D03*
X103500000Y-85620000D03*
%TD*%
D10*
%TO.C,J4*%
X60800000Y-103125000D03*
D11*
X58260000Y-103125000D03*
X55720000Y-103125000D03*
X53180000Y-103125000D03*
%TD*%
D10*
%TO.C,J11*%
X103500000Y-91000000D03*
D11*
X103500000Y-93540000D03*
X103500000Y-96080000D03*
X103500000Y-98620000D03*
%TD*%
D12*
%TO.C,H2*%
X110000000Y-30000000D03*
%TD*%
D10*
%TO.C,J6*%
X47300000Y-103125000D03*
D11*
X44760000Y-103125000D03*
X42220000Y-103125000D03*
X39680000Y-103125000D03*
%TD*%
M02*
