<?xml version="1.0" encoding="UTF-8" standalone="no"?>
<!DOCTYPE svg PUBLIC "-//W3C//DTD SVG 1.1//EN"
 "http://www.w3.org/Graphics/SVG/1.1/DTD/svg11.dtd">
<!-- Generated by graphviz version 2.50.0 (0)
 -->
<!-- Pages: 1 -->
<svg width="821pt" height="294pt"
 viewBox="0.00 0.00 821.00 293.50" xmlns="http://www.w3.org/2000/svg" xmlns:xlink="http://www.w3.org/1999/xlink">
<g id="graph0" class="graph" transform="scale(1 1) rotate(0) translate(4 289.5)">
<polygon fill="#ffffff" stroke="transparent" points="-4,4 -4,-289.5 817,-289.5 817,4 -4,4"/>
<!-- X1 -->
<g id="node1" class="node">
<title>X1</title>
<polygon fill="#ffffff" stroke="black" points="136,-253 0,-253 0,0 136,0 136,-253"/>
<polygon fill="none" stroke="black" points="0,-229.5 0,-252.5 136,-252.5 136,-229.5 0,-229.5"/>
<text text-anchor="start" x="59.5" y="-237.3" font-family="arial" font-size="14.00">X1</text>
<polygon fill="none" stroke="black" points="0,-206.5 0,-229.5 47,-229.5 47,-206.5 0,-206.5"/>
<text text-anchor="start" x="4" y="-214.3" font-family="arial" font-size="14.00">D&#45;Sub</text>
<polygon fill="none" stroke="black" points="47,-206.5 47,-229.5 97,-229.5 97,-206.5 47,-206.5"/>
<text text-anchor="start" x="51" y="-214.3" font-family="arial" font-size="14.00">female</text>
<polygon fill="none" stroke="black" points="97,-206.5 97,-229.5 136,-229.5 136,-206.5 97,-206.5"/>
<text text-anchor="start" x="101" y="-214.3" font-family="arial" font-size="14.00">9&#45;pin</text>
<polygon fill="none" stroke="black" points="0,-183.5 0,-206.5 80,-206.5 80,-183.5 0,-183.5"/>
<text text-anchor="start" x="25" y="-191.3" font-family="arial" font-size="14.00">DCD</text>
<polygon fill="none" stroke="black" points="80,-183.5 80,-206.5 136,-206.5 136,-183.5 80,-183.5"/>
<text text-anchor="start" x="104" y="-191.3" font-family="arial" font-size="14.00">1</text>
<polygon fill="none" stroke="black" points="0,-160.5 0,-183.5 80,-183.5 80,-160.5 0,-160.5"/>
<text text-anchor="start" x="30.5" y="-168.3" font-family="arial" font-size="14.00">RX</text>
<polygon fill="none" stroke="black" points="80,-160.5 80,-183.5 136,-183.5 136,-160.5 80,-160.5"/>
<text text-anchor="start" x="104" y="-168.3" font-family="arial" font-size="14.00">2</text>
<polygon fill="none" stroke="black" points="0,-137.5 0,-160.5 80,-160.5 80,-137.5 0,-137.5"/>
<text text-anchor="start" x="31" y="-145.3" font-family="arial" font-size="14.00">TX</text>
<polygon fill="none" stroke="black" points="80,-137.5 80,-160.5 136,-160.5 136,-137.5 80,-137.5"/>
<text text-anchor="start" x="104" y="-145.3" font-family="arial" font-size="14.00">3</text>
<polygon fill="none" stroke="black" points="0,-114.5 0,-137.5 80,-137.5 80,-114.5 0,-114.5"/>
<text text-anchor="start" x="26" y="-122.3" font-family="arial" font-size="14.00">DTR</text>
<polygon fill="none" stroke="black" points="80,-114.5 80,-137.5 136,-137.5 136,-114.5 80,-114.5"/>
<text text-anchor="start" x="104" y="-122.3" font-family="arial" font-size="14.00">4</text>
<polygon fill="none" stroke="black" points="0,-91.5 0,-114.5 80,-114.5 80,-91.5 0,-91.5"/>
<text text-anchor="start" x="24.5" y="-99.3" font-family="arial" font-size="14.00">GND</text>
<polygon fill="none" stroke="black" points="80,-91.5 80,-114.5 136,-114.5 136,-91.5 80,-91.5"/>
<text text-anchor="start" x="104" y="-99.3" font-family="arial" font-size="14.00">5</text>
<polygon fill="none" stroke="black" points="0,-68.5 0,-91.5 80,-91.5 80,-68.5 0,-68.5"/>
<text text-anchor="start" x="25.5" y="-76.3" font-family="arial" font-size="14.00">DSR</text>
<polygon fill="none" stroke="black" points="80,-68.5 80,-91.5 136,-91.5 136,-68.5 80,-68.5"/>
<text text-anchor="start" x="104" y="-76.3" font-family="arial" font-size="14.00">6</text>
<polygon fill="none" stroke="black" points="0,-45.5 0,-68.5 80,-68.5 80,-45.5 0,-45.5"/>
<text text-anchor="start" x="26" y="-53.3" font-family="arial" font-size="14.00">RTS</text>
<polygon fill="none" stroke="black" points="80,-45.5 80,-68.5 136,-68.5 136,-45.5 80,-45.5"/>
<text text-anchor="start" x="104" y="-53.3" font-family="arial" font-size="14.00">7</text>
<polygon fill="none" stroke="black" points="0,-22.5 0,-45.5 80,-45.5 80,-22.5 0,-22.5"/>
<text text-anchor="start" x="26" y="-30.3" font-family="arial" font-size="14.00">CTS</text>
<polygon fill="none" stroke="black" points="80,-22.5 80,-45.5 136,-45.5 136,-22.5 80,-22.5"/>
<text text-anchor="start" x="104" y="-30.3" font-family="arial" font-size="14.00">8</text>
<polygon fill="none" stroke="black" points="0,0.5 0,-22.5 80,-22.5 80,0.5 0,0.5"/>
<text text-anchor="start" x="33" y="-7.3" font-family="arial" font-size="14.00">RI</text>
<polygon fill="none" stroke="black" points="80,0.5 80,-22.5 136,-22.5 136,0.5 80,0.5"/>
<text text-anchor="start" x="104" y="-7.3" font-family="arial" font-size="14.00">9</text>
</g>
<!-- W1 -->
<g id="node3" class="node">
<title>W1</title>
<polygon fill="#ffffff" stroke="black" points="487,-285.5 280,-285.5 280,-61.5 487,-61.5 487,-285.5"/>
<polygon fill="none" stroke="black" points="280.5,-262.5 280.5,-285.5 487.5,-285.5 487.5,-262.5 280.5,-262.5"/>
<text text-anchor="start" x="373" y="-270.3" font-family="arial" font-size="14.00">W1</text>
<polygon fill="none" stroke="black" points="280.5,-239.5 280.5,-262.5 314.5,-262.5 314.5,-239.5 280.5,-239.5"/>
<text text-anchor="start" x="290" y="-247.3" font-family="arial" font-size="14.00">4x</text>
<polygon fill="none" stroke="black" points="314.5,-239.5 314.5,-262.5 392.5,-262.5 392.5,-239.5 314.5,-239.5"/>
<text text-anchor="start" x="324" y="-247.3" font-family="arial" font-size="14.00">0.25 mm²</text>
<polygon fill="none" stroke="black" points="392.5,-239.5 392.5,-262.5 433.5,-262.5 433.5,-239.5 392.5,-239.5"/>
<text text-anchor="start" x="402" y="-247.3" font-family="arial" font-size="14.00">+ S</text>
<polygon fill="none" stroke="black" points="433.5,-239.5 433.5,-262.5 487.5,-262.5 487.5,-239.5 433.5,-239.5"/>
<text text-anchor="start" x="443" y="-247.3" font-family="arial" font-size="14.00">0.2 m</text>
<text text-anchor="start" x="312" y="-226.3" font-family="arial" font-size="14.00"> </text>
<text text-anchor="start" x="282.5" y="-207.3" font-family="arial" font-size="14.00">X1:5:GND</text>
<text text-anchor="start" x="349.5" y="-207.3" font-family="arial" font-size="14.00"> &#160;&#160;&#160;&#160;1:WH &#160;&#160;&#160;</text>
<text text-anchor="start" x="422.5" y="-207.3" font-family="arial" font-size="14.00">X2:1:GND</text>
<polygon fill="#000000" stroke="transparent" points="280.5,-199.5 280.5,-201.5 487.5,-201.5 487.5,-199.5 280.5,-199.5"/>
<polygon fill="#ffffff" stroke="transparent" points="280.5,-197.5 280.5,-199.5 487.5,-199.5 487.5,-197.5 280.5,-197.5"/>
<polygon fill="#000000" stroke="transparent" points="280.5,-195.5 280.5,-197.5 487.5,-197.5 487.5,-195.5 280.5,-195.5"/>
<text text-anchor="start" x="288.5" y="-182.3" font-family="arial" font-size="14.00">X1:2:RX</text>
<text text-anchor="start" x="352" y="-182.3" font-family="arial" font-size="14.00"> &#160;&#160;&#160;&#160;2:BN &#160;&#160;&#160;</text>
<text text-anchor="start" x="429.5" y="-182.3" font-family="arial" font-size="14.00">X2:3:TX</text>
<polygon fill="#000000" stroke="transparent" points="280.5,-174.5 280.5,-176.5 487.5,-176.5 487.5,-174.5 280.5,-174.5"/>
<polygon fill="#895956" stroke="transparent" points="280.5,-172.5 280.5,-174.5 487.5,-174.5 487.5,-172.5 280.5,-172.5"/>
<polygon fill="#000000" stroke="transparent" points="280.5,-170.5 280.5,-172.5 487.5,-172.5 487.5,-170.5 280.5,-170.5"/>
<text text-anchor="start" x="289.5" y="-157.3" font-family="arial" font-size="14.00">X1:3:TX</text>
<text text-anchor="start" x="350.5" y="-157.3" font-family="arial" font-size="14.00"> &#160;&#160;&#160;&#160;3:GN &#160;&#160;&#160;</text>
<text text-anchor="start" x="428.5" y="-157.3" font-family="arial" font-size="14.00">X2:2:RX</text>
<polygon fill="#000000" stroke="transparent" points="280.5,-149.5 280.5,-151.5 487.5,-151.5 487.5,-149.5 280.5,-149.5"/>
<polygon fill="#00ff00" stroke="transparent" points="280.5,-147.5 280.5,-149.5 487.5,-149.5 487.5,-147.5 280.5,-147.5"/>
<polygon fill="#000000" stroke="transparent" points="280.5,-145.5 280.5,-147.5 487.5,-147.5 487.5,-145.5 280.5,-145.5"/>
<text text-anchor="start" x="352" y="-132.3" font-family="arial" font-size="14.00"> &#160;&#160;&#160;&#160;4:YE &#160;&#160;&#160;</text>
<polygon fill="#000000" stroke="transparent" points="280.5,-124.5 280.5,-126.5 487.5,-126.5 487.5,-124.5 280.5,-124.5"/>
<polygon fill="#ffff00" stroke="transparent" points="280.5,-122.5 280.5,-124.5 487.5,-124.5 487.5,-122.5 280.5,-122.5"/>
<polygon fill="#000000" stroke="transparent" points="280.5,-120.5 280.5,-122.5 487.5,-122.5 487.5,-120.5 280.5,-120.5"/>
<text text-anchor="start" x="312" y="-107.3" font-family="arial" font-size="14.00"> </text>
<text text-anchor="start" x="282.5" y="-88.3" font-family="arial" font-size="14.00">X1:5:GND</text>
<text text-anchor="start" x="365" y="-88.3" font-family="arial" font-size="14.00">Shield</text>
<polygon fill="#000000" stroke="transparent" points="280.5,-80.5 280.5,-82.5 487.5,-82.5 487.5,-80.5 280.5,-80.5"/>
<text text-anchor="start" x="312" y="-67.3" font-family="arial" font-size="14.00"> </text>
</g>
<!-- X1&#45;&#45;W1 -->
<g id="edge1" class="edge">
<title>X1:e&#45;&#45;W1:w</title>
<path fill="none" stroke="#000000" stroke-width="2" d="M136,-100.5C214.91,-102.7 205.07,-198.7 280,-196.5"/>
<path fill="none" stroke="#ffffff" stroke-width="2" d="M136,-102.5C212.92,-102.5 203.08,-198.5 280,-198.5"/>
<path fill="none" stroke="#000000" stroke-width="2" d="M136,-104.5C210.93,-102.3 201.09,-198.3 280,-200.5"/>
</g>
<!-- X1&#45;&#45;W1 -->
<g id="edge3" class="edge">
<title>X1:e&#45;&#45;W1:w</title>
<path fill="none" stroke="#000000" stroke-width="2" d="M136,-170.5C200.13,-170.5 216.12,-171.5 280,-171.5"/>
<path fill="none" stroke="#895956" stroke-width="2" d="M136,-172.5C200,-172.5 216,-173.5 280,-173.5"/>
<path fill="none" stroke="#000000" stroke-width="2" d="M136,-174.5C199.88,-174.5 215.87,-175.5 280,-175.5"/>
</g>
<!-- X1&#45;&#45;W1 -->
<g id="edge5" class="edge">
<title>X1:e&#45;&#45;W1:w</title>
<path fill="none" stroke="#000000" stroke-width="2" d="M136,-147.5C199.88,-147.5 215.87,-146.5 280,-146.5"/>
<path fill="none" stroke="#00ff00" stroke-width="2" d="M136,-149.5C200,-149.5 216,-148.5 280,-148.5"/>
<path fill="none" stroke="#000000" stroke-width="2" d="M136,-151.5C200.13,-151.5 216.12,-150.5 280,-150.5"/>
</g>
<!-- X1&#45;&#45;W1 -->
<g id="edge7" class="edge">
<title>X1:e&#45;&#45;W1:w</title>
<path fill="none" stroke="#000000" stroke-width="2" d="M136,-102.5C200.68,-102.5 215.32,-81.5 280,-81.5"/>
</g>
<!-- X2 -->
<g id="node2" class="node">
<title>X2</title>
<polygon fill="#ffffff" stroke="black" points="813,-257 631,-257 631,-142 813,-142 813,-257"/>
<polygon fill="none" stroke="black" points="631,-233.5 631,-256.5 813,-256.5 813,-233.5 631,-233.5"/>
<text text-anchor="start" x="713.5" y="-241.3" font-family="arial" font-size="14.00">X2</text>
<polygon fill="none" stroke="black" points="631,-210.5 631,-233.5 724,-233.5 724,-210.5 631,-210.5"/>
<text text-anchor="start" x="635" y="-218.3" font-family="arial" font-size="14.00">Molex KK 254</text>
<polygon fill="none" stroke="black" points="724,-210.5 724,-233.5 774,-233.5 774,-210.5 724,-210.5"/>
<text text-anchor="start" x="728" y="-218.3" font-family="arial" font-size="14.00">female</text>
<polygon fill="none" stroke="black" points="774,-210.5 774,-233.5 813,-233.5 813,-210.5 774,-210.5"/>
<text text-anchor="start" x="778" y="-218.3" font-family="arial" font-size="14.00">3&#45;pin</text>
<polygon fill="none" stroke="black" points="631,-187.5 631,-210.5 711,-210.5 711,-187.5 631,-187.5"/>
<text text-anchor="start" x="667" y="-195.3" font-family="arial" font-size="14.00">1</text>
<polygon fill="none" stroke="black" points="711,-187.5 711,-210.5 813,-210.5 813,-187.5 711,-187.5"/>
<text text-anchor="start" x="746.5" y="-195.3" font-family="arial" font-size="14.00">GND</text>
<polygon fill="none" stroke="black" points="631,-164.5 631,-187.5 711,-187.5 711,-164.5 631,-164.5"/>
<text text-anchor="start" x="667" y="-172.3" font-family="arial" font-size="14.00">2</text>
<polygon fill="none" stroke="black" points="711,-164.5 711,-187.5 813,-187.5 813,-164.5 711,-164.5"/>
<text text-anchor="start" x="752.5" y="-172.3" font-family="arial" font-size="14.00">RX</text>
<polygon fill="none" stroke="black" points="631,-141.5 631,-164.5 711,-164.5 711,-141.5 631,-141.5"/>
<text text-anchor="start" x="667" y="-149.3" font-family="arial" font-size="14.00">3</text>
<polygon fill="none" stroke="black" points="711,-141.5 711,-164.5 813,-164.5 813,-141.5 711,-141.5"/>
<text text-anchor="start" x="753" y="-149.3" font-family="arial" font-size="14.00">TX</text>
</g>
<!-- W1&#45;&#45;X2 -->
<g id="edge2" class="edge">
<title>W1:e&#45;&#45;X2:w</title>
<path fill="none" stroke="#000000" stroke-width="2" d="M487,-196.5C551,-196.5 567,-196.5 631,-196.5"/>
<path fill="none" stroke="#ffffff" stroke-width="2" d="M487,-198.5C551,-198.5 567,-198.5 631,-198.5"/>
<path fill="none" stroke="#000000" stroke-width="2" d="M487,-200.5C551,-200.5 567,-200.5 631,-200.5"/>
</g>
<!-- W1&#45;&#45;X2 -->
<g id="edge4" class="edge">
<title>W1:e&#45;&#45;X2:w</title>
<path fill="none" stroke="#000000" stroke-width="2" d="M487,-171.5C550.04,-172.36 564.68,-151.36 631,-150.5"/>
<path fill="none" stroke="#895956" stroke-width="2" d="M487,-173.5C551.68,-173.5 566.32,-152.5 631,-152.5"/>
<path fill="none" stroke="#000000" stroke-width="2" d="M487,-175.5C553.32,-174.64 567.96,-153.64 631,-154.5"/>
</g>
<!-- W1&#45;&#45;X2 -->
<g id="edge6" class="edge">
<title>W1:e&#45;&#45;X2:w</title>
<path fill="none" stroke="#000000" stroke-width="2" d="M487,-146.5C553.9,-147.59 567.67,-174.59 631,-173.5"/>
<path fill="none" stroke="#00ff00" stroke-width="2" d="M487,-148.5C552.12,-148.5 565.88,-175.5 631,-175.5"/>
<path fill="none" stroke="#000000" stroke-width="2" d="M487,-150.5C550.33,-149.41 564.1,-176.41 631,-177.5"/>
</g>
</g>
</svg>
